<?xml version="1.0" encoding="UTF-8" standalone="no"?>
<svg width="72px" height="75px" viewBox="0 0 72 75" version="1.1" xmlns="http://www.w3.org/2000/svg" xmlns:xlink="http://www.w3.org/1999/xlink" xmlns:sketch="http://www.bohemiancoding.com/sketch/ns">
  <!-- Generator: Sketch 3.3.2 (12043) - http://www.bohemiancoding.com/sketch -->
  <title>Employee Icon</title>
  <defs></defs>
  <g id="icon" sketch:type="MSLayerGroup" fill="#4B6491">
    <path d="M13.867,20.365 C13.89,19.584 13.96,17.207 15.595,16.59 C17.216,15.977 18.922,17.683 19.248,18.031 C19.625,18.435 19.604,19.068 19.201,19.445 C18.798,19.822 18.164,19.801 17.787,19.398 C17.25,18.829 16.506,18.399 16.301,18.462 C16.299,18.463 15.916,18.746 15.866,20.425 C15.732,24.994 19.238,26.264 19.387,26.316 C19.698,26.424 19.942,26.68 20.03,26.998 L20.085,27.197 C20.101,27.256 20.112,27.317 20.117,27.378 C21.107,39.172 30.452,42.987 34.823,42.987 C39.194,42.987 48.539,39.172 49.528,27.378 C49.533,27.316 49.544,27.254 49.561,27.194 L49.616,26.995 C49.705,26.674 49.948,26.419 50.264,26.313 C50.408,26.263 53.913,24.993 53.779,20.424 C53.73,18.745 53.346,18.463 53.342,18.461 C53.135,18.397 52.377,18.843 51.858,19.398 C51.481,19.801 50.848,19.822 50.444,19.445 C50.041,19.068 50.02,18.435 50.397,18.031 C50.723,17.683 52.426,15.978 54.05,16.59 C55.684,17.208 55.754,19.584 55.777,20.365 C55.905,24.733 53.286,27.107 51.481,27.971 C50.289,39.703 41.073,44.987 34.822,44.987 C28.571,44.987 19.355,39.703 18.163,27.971 C16.358,27.106 13.738,24.733 13.867,20.365 L13.867,20.365 Z M35.679001,53.4926757 C35.679001,53.4926757 23.4223653,42.1223959 23.0874845,41.7884115 C22.7526037,41.454427 22.2831213,40.9361979 21.6052248,41.2916667 C20.9273283,41.6471354 21.0709631,42.4125976 21.0709631,42.4125976 C17.5099631,43.7615976 0.535,51.377 0.535,70.78 C0.535,71.332 0.983,71.78 1.535,71.78 C2.087,71.78 2.535,71.332 2.535,70.78 C2.535,53.288 17.4803068,45.859282 22.421713,44.0472819 C22.421713,44.0472819 33.9062044,54.7831354 34.2490007,55.1009998 C34.591797,55.4188642 35.08659,55.7164716 35.679001,55.7164716 C36.271412,55.7164716 36.6634103,55.3918457 36.9630548,55.1009998 C37.2626993,54.8101539 49.0835156,43.2881084 49.4343263,42.9856772 C49.7851371,42.683246 49.9198228,42.0251944 49.5690118,41.70931 C49.2182008,41.3934257 48.4766428,41.1875815 48.0884592,41.6228842 L35.679001,53.4926757 Z M14.862,66.313 C14.31,66.313 13.862,66.761 13.862,67.313 L13.862,70.779 C13.862,71.331 14.31,71.779 14.862,71.779 C15.414,71.779 15.862,71.331 15.862,70.779 L15.862,67.313 C15.862,66.761 15.415,66.313 14.862,66.313 L14.862,66.313 Z M19.448,16.083 L19.452,16.083 C20.002,16.083 20.45,15.638 20.452,15.087 C20.464,12.48 21.274,10.088 22.732,8.354 C23.087,7.931 23.033,7.3 22.61,6.945 C22.187,6.59 21.557,6.645 21.201,7.067 C19.443,9.159 18.466,12.005 18.452,15.079 C18.45,15.63 18.896,16.08 19.448,16.083 L19.448,16.083 Z M16.539,14.488 L16.542,14.488 C17.093,14.488 17.541,14.042 17.542,13.491 C17.546,12.268 18.1,10.492 18.367,9.638 C18.532,9.111 18.238,8.55 17.71,8.386 C17.185,8.221 16.622,8.514 16.458,9.043 C15.985,10.558 15.546,12.145 15.542,13.485 C15.54,14.038 15.986,14.487 16.539,14.488 L16.539,14.488 Z M25.505,5.687 L40.185,5.687 C40.51,5.691 48.157,5.896 48.157,14.918 C48.157,15.47 48.605,15.918 49.157,15.918 C49.709,15.918 50.157,15.47 50.157,14.918 C50.157,3.946 40.311,3.688 40.198,3.687 L25.505,3.687 C24.953,3.687 24.505,4.135 24.505,4.687 C24.505,5.239 24.953,5.687 25.505,5.687 L25.505,5.687 Z M27.798,2 L40.198,2 C40.75,2 41.198,1.552 41.198,1 C41.198,0.448 40.75,0 40.198,0 L27.798,0 C27.246,0 26.798,0.448 26.798,1 C26.798,1.552 27.246,2 27.798,2 L27.798,2 Z M35.521,22.008 L35.521,30.256 L33.123,30.256 C32.571,30.256 32.123,30.704 32.123,31.256 C32.123,31.808 32.571,32.256 33.123,32.256 L36.521,32.256 C37.073,32.256 37.521,31.808 37.521,31.256 L37.521,22.008 C37.521,21.456 37.073,21.008 36.521,21.008 C35.969,21.008 35.521,21.456 35.521,22.008 L35.521,22.008 Z M61.7386468,71.1693115 C62.0209344,71.6002197 61.65393,72.210144 61.3045648,72.5814209 C60.5404707,73.3934378 57.5468003,74.207 55.418,74.207 C52.549,74.207 49.476,73.287 49.317,71.279 C49.316,71.275 46.46,52.406 46.46,52.406 C46.431,52.288 46.416,52.165 46.405,52.041 C46.392,51.951 46.395,51.943 46.394,51.934 C46.392,51.892 46.381,51.853 46.381,51.811 C46.381,51.401 46.488,51.024 46.666,50.672 C46.666,50.672 49.0002276,47.6210002 54.8813481,47.6210002 C53.4691675,46.7051499 49.4155049,44.6262208 48.1590576,44.1989746 C48.8411641,43.5124512 48.9698486,43.4388428 49.4455566,42.9870605 C51.5336918,43.6251221 55.583,45.913 57.255,47.543 C57.279,47.566 57.288,47.597 57.308,47.621 C61.099,47.976 64.453,49.398 64.453,51.812 C64.453,54.623 59.907,56.094 55.416,56.094 C53.002,56.094 50.579,55.665 48.848,54.836 L50.977,68.913 C51.0299239,69.5666039 51.188129,70.6133518 51.6446536,71.1063232 C52.6016758,72.1397498 54.3361272,72.3059082 55.4159997,72.3059082 C56.7330394,72.3050144 58.9838861,72.0303955 60.096618,71.2670002 C60.5858366,70.9313693 61.4563592,70.7384033 61.7386468,71.1693115 Z M55.418,49.529 C50.927,49.529 48.454,50.994 48.388,51.777 L48.419,51.979 C48.733,52.784 51.176,54.092 55.419,54.092 C59.972,54.092 62.456,52.585 62.456,51.81 C62.456,51.035 59.971,49.529 55.418,49.529 L55.418,49.529 Z M71.671,59.967 L71.67,66.907 C71.67,69.912 69.225,72.357 66.22,72.357 C63.215,72.357 60.77,69.912 60.77,66.907 L60.769,59.967 C60.761,58.481 60.752,56.796 61.946,55.595 C62.839,54.697 64.237,54.261 66.22,54.261 C68.203,54.261 69.601,54.698 70.494,55.595 C71.688,56.796 71.679,58.481 71.671,59.967 L71.671,59.967 Z M66.22,56.26 C64.817,56.26 63.855,56.51 63.364,57.005 C62.958,57.414 62.828,58.059 62.787,58.8 L65.112,58.8 C65.664,58.8 66.112,59.248 66.112,59.8 C66.112,60.352 65.664,60.8 65.112,60.8 L62.769,60.8 L62.769,62.621 L65.112,62.621 C65.664,62.621 66.112,63.069 66.112,63.621 C66.112,64.173 65.664,64.621 65.112,64.621 L62.77,64.621 L62.77,66.309 L65.112,66.309 C65.664,66.309 66.112,66.757 66.112,67.309 C66.112,67.861 65.664,68.309 65.112,68.309 L63.075,68.309 C63.614,69.513 64.818,70.356 66.22,70.356 C68.122,70.356 69.67,68.808 69.67,66.906 L69.671,59.955 C69.677,58.753 69.684,57.617 69.076,57.005 C68.585,56.511 67.623,56.26 66.22,56.26 Z" id="Shape" sketch:type="MSShapeGroup"></path>
    <path d="M34.5,38.1035 C38.6421356,38.1035 41.7835686,35.5643157 40.7027584,34.4808194 C39.6219482,33.397323 38.6421356,35.9965664 34.5,35.9965664 C30.3578644,35.9965664 30.119873,33.6353604 28.869873,34.4808194 C27.619873,35.3262783 30.3578644,38.1035 34.5,38.1035 Z" id="Oval-1" sketch:type="MSShapeGroup"></path>
  </g>
</svg>